#!OML:ASF Y:\EmotionMaleHayes\Project 1\Capture day 1\Session 1\Male1.ASF
:FULLY-SPECIFIED
:DEGREES
456
root -23.2997 17.2243 -0.226057 -6.63316 78.1006 -1.27917
lowerback 3.7555 3.21624 -5.66834
upperback 2.55444 4.17453 -1.22173
thorax 0.223205 2.05839 1.75222
lowerneck -28.8335 2.25925 6.01163
upperneck 34.5943 1.79248 -2.18591
head 17.7627 1.38954 -1.56467
rclavicle -2.26615e-014 -2.8625e-014
rhumerus 39.9068 18.938 -44.9318
rradius 38.728
rwrist 2.50879
rhand 1.44525 -23.7058
rfingers 7.12502
rthumb 26.9739 -51.8002
lclavicle -2.26615e-014 -2.8625e-014
lhumerus 38.6519 -15.7931 36.1843
lradius 36.9593
lwrist -1.4922
lhand 3.14383 -26.2279
lfingers 7.12502
lthumb 28.598 1.60431
rfemur 10.4732 -3.66419 6.21162
rtibia 11.949
rfoot -15.0146 -7.15335
rtoes -0.586102
lfemur 9.66822 4.39727 -17.8312
ltibia 4.05338
lfoot -12.6514 12.0458
ltoes 1.13981
457
root -23.2525 17.2238 -0.237744 -6.42433 78.2786 -0.936262
lowerback 3.49781 3.14343 -5.93972
upperback 2.80923 4.10567 -1.1736
thorax 0.614542 2.00794 1.97918
lowerneck -28.7996 2.30333 5.99288
upperneck 34.3801 1.92933 -2.3609
head 17.6491 1.40527 -1.60926
rclavicle -3.44891e-014 -6.36111e-015
rhumerus 40.1827 18.5949 -45.1383
rradius 38.5429
rwrist 2.71979
rhand 1.5906 -23.7764
rfingers 7.12502
rthumb 27.113 -51.8492
lclavicle -3.44891e-014 -6.36111e-015
lhumerus 38.7501 -15.5224 36.2635
lradius 36.9325
lwrist -1.59232
lhand 2.83746 -26.3641
lfingers 7.12502
lthumb 28.3052 1.51698
rfemur 10.1587 -3.59323 6.25947
rtibia 11.676
rfoot -15.1128 -7.21432
rtoes 0.466271
lfemur 9.97545 4.29198 -18.0322
ltibia 3.97815
lfoot -12.6046 12.0779
ltoes 0.224269
458
root -23.2094 17.2179 -0.244877 -7.19307 78.4676 -1.62913
lowerback 3.82006 3.15218 -5.98425
upperback 2.65391 4.08096 -1.10073
thorax 0.267806 2.00518 2.05469
lowerneck -28.6477 2.2005 5.81177
upperneck 34.4185 1.8679 -2.31539
head 17.6254 1.36731 -1.57146
rclavicle -2.45996e-015 6.36111e-015
rhumerus 39.9028 18.7031 -45.029
rradius 38.5618
rwrist 2.63904
rhand 1.86424 -23.8437
rfingers 7.12502
rthumb 27.3748 -51.8755
lclavicle -2.45996e-015 6.36111e-015
lhumerus 38.5619 -15.7289 36.569
lradius 37.0233
lwrist -1.93973
lhand 2.82599 -26.4317
lfingers 7.12502
lthumb 28.2943 1.45121
rfemur 9.80711 -3.51344 6.59002
rtibia 11.3832
rfoot -15.2971 -7.13075
rtoes 0.321839
lfemur 10.2506 4.07333 -17.9716
ltibia 3.88879
lfoot -12.6934 12.0452
ltoes 0.266975
459
root -23.1605 17.2158 -0.256832 -7.20238 78.6888 -1.47607
lowerback 3.79888 3.12238 -5.93828
upperback 2.77706 4.05523 -1.23905
thorax 0.422137 1.98974 1.89452
lowerneck -28.8571 2.22077 5.92694
upperneck 34.4122 1.79748 -2.27028
head 17.6698 1.35903 -1.58683
rclavicle -3.62285e-014 1.51076e-014
rhumerus 39.8569 18.4474 -45.1932
rradius 38.4657
rwrist 2.84234
rhand 2.07362 -23.6146
rfingers 7.12502
rthumb 27.575 -51.6145
lclavicle -3.62285e-014 1.51076e-014
lhumerus 38.3501 -15.7539 36.7177
lradius 37.3746
lwrist -2.08021
lhand 2.90597 -26.5124
lfingers 7.12502
lthumb 28.3707 1.3578
rfemur 9.53459 -3.76549 6.53174
rtibia 11.1615
rfoot -15.158 -6.69483
rtoes 0.0587358
lfemur 10.5944 3.7059 -18.2077
ltibia 3.80498
lfoot -12.9313 12.1632
ltoes 0.91722
460
root -23.1104 17.214 -0.271448 -7.66243 78.9362 -1.85138
lowerback 3.74087 3.07621 -5.83495
upperback 2.86978 4.00863 -1.30273
thorax 0.565015 1.96427 1.78114
lowerneck -28.9634 2.17702 5.91186
upperneck 34.3909 1.69812 -2.20489
head 17.677 1.32542 -1.57708
rclavicle 4.40805e-014 -1.43125e-014
rhumerus 39.8449 18.129 -45.543
rradius 38.2195
rwrist 3.04537
rhand 1.71957 -23.0967
rfingers 7.12502
rthumb 27.2364 -51.1502
lclavicle 4.40805e-014 -1.43125e-014
lhumerus 39.0062 -15.8301 36.6004
lradius 36.9556
lwrist -1.72461
lhand 3.0318 -26.5177
lfingers 7.12502
lthumb 28.4909 1.33241
rfemur 9.21759 -3.93479 6.63529
rtibia 10.8857
rfoot -14.9902 -6.38964
rtoes 1.13918
lfemur 10.7869 3.46683 -18.3127
ltibia 3.93781
lfoot -13.1962 12.181
ltoes 1.19491
461
root -23.0638 17.2149 -0.283497 -8.23998 79.129 -2.33576
lowerback 4.06514 3.07514 -5.87621
upperback 2.71967 3.97085 -1.21841
thorax 0.223116 1.95421 1.86791
lowerneck -28.8924 2.11381 5.7886
upperneck 34.5505 1.73278 -2.31321
head 17.7461 1.31282 -1.59907
rclavicle -2.34814e-014 7.15625e-015
rhumerus 39.633 18.2538 -45.5096
rradius 38.1228
rwrist 2.91396
rhand 1.24756 -22.958
rfingers 7.12502
rthumb 26.7848 -51.0815
lclavicle -2.34814e-014 7.15625e-015
lhumerus 38.8566 -16.0518 36.8464
lradius 36.98
lwrist -1.71858
lhand 3.05165 -26.5243
lfingers 7.12502
lthumb 28.5099 1.3227
rfemur 8.88187 -3.88655 6.86139
rtibia 10.5873
rfoot -14.9163 -6.20505
rtoes 2.35813
lfemur 11.0534 3.29918 -18.3419
ltibia 3.87872
lfoot -13.2497 12.1667
ltoes 1.66671
462
root -23.0164 17.2164 -0.296391 -7.32919 79.3242 -1.33855
lowerback 3.97811 3.02595 -6.12476
upperback 2.81794 3.91202 -1.24199
thorax 0.364432 1.91785 1.99232
lowerneck -28.8944 2.15096 5.78709
upperneck 34.4455 1.85993 -2.49894
head 17.6997 1.32958 -1.65446
rclavicle -1.31695e-014 -9.54166e-015
rhumerus 39.739 18.1914 -45.4604
rradius 38.0509
rwrist 2.91864
rhand 1.24295 -23.1815
rfingers 7.12502
rthumb 26.7804 -51.3057
lclavicle -1.31695e-014 -9.54166e-015
lhumerus 38.7862 -15.9378 37.0697
lradius 37.0059
lwrist -1.82861
lhand 2.87759 -26.5562
lfingers 7.12502
lthumb 28.3436 1.31852
rfemur 8.44061 -3.94135 6.72766
rtibia 10.4614
rfoot -14.7723 -5.9968
rtoes 1.80767
lfemur 11.2924 3.05916 -18.7651
ltibia 3.75474
lfoot -13.2769 12.2649
ltoes 1.96941
463
root -22.9664 17.2112 -0.311266 -6.1086 79.5465 -0.0128371
lowerback 4.00768 3.02308 -6.31783
upperback 2.83758 3.90505 -1.39275
thorax 0.3679 1.91425 1.94357
lowerneck -28.861 2.14894 5.81445
upperneck 34.3847 1.8233 -2.45315
head 17.6569 1.32459 -1.64571
rclavicle -1.49089e-014 2.38542e-014
rhumerus 39.5585 17.9987 -45.7166
rradius 37.9623
rwrist 3.11326
rhand 1.47709 -23.2361
rfingers 7.12502
rthumb 27.0044 -51.3258
lclavicle -1.49089e-014 2.38542e-014
lhumerus 38.8892 -16.0179 37.1853
lradius 36.9645
lwrist -2.04799
lhand 2.78262 -26.5241
lfingers 7.12502
lthumb 28.2528 1.36572
rfemur 8.01914 -4.08455 6.47638
rtibia 10.3472
rfoot -14.6009 -5.7224
rtoes 0.162644
lfemur 11.4573 2.8172 -19.2907
ltibia 3.93969
lfoot -13.4528 12.342
ltoes 0.889648
464
root -22.9175 17.2011 -0.322586 -5.48343 79.7769 0.783164
lowerback 4.17485 3.06441 -6.42611
upperback 2.8316 3.94606 -1.51627
thorax 0.267561 1.93867 1.86468
lowerneck -28.8656 2.10958 5.84069
upperneck 34.4007 1.73378 -2.40914
head 17.6611 1.30079 -1.65057
rclavicle 2.24627e-014 -7.15625e-015
rhumerus 39.3061 17.8429 -45.8321
rradius 37.8691
rwrist 3.22507
rhand 1.67072 -23.1357
rfingers 7.12502
rthumb 27.1896 -51.1966
lclavicle 2.24627e-014 -7.15625e-015
lhumerus 39.0806 -16.2467 37.2435
lradius 36.9009
lwrist -2.32279
lhand 2.76212 -26.4739
lfingers 7.12502
lthumb 28.2332 1.41914
rfemur 7.72368 -4.10041 6.36403
rtibia 10.1159
rfoot -14.4135 -5.23385
rtoes 1.06981
lfemur 11.6675 2.70896 -19.6027
ltibia 4.19649
lfoot -13.6011 12.2718
ltoes -0.788358
